<svg width="368" height="367" viewBox="0 0 368 367" fill="none" xmlns="http://www.w3.org/2000/svg">
<path d="M208.299 366.996C207.956 366.996 207.612 366.905 207.304 366.727L40.5779 268.649C40.105 268.373 39.7723 267.91 39.6567 267.374C39.5411 266.838 39.6532 266.282 39.9685 265.833L174.253 75.0046C174.877 74.1184 176.099 73.9047 176.985 74.5282C177.871 75.1517 178.085 76.3741 177.462 77.2603L44.4053 266.349L206.514 361.71L211.778 264.287C211.838 263.205 212.748 262.385 213.841 262.434C214.923 262.494 215.75 263.418 215.694 264.497L210.254 365.139C210.216 365.822 209.827 366.439 209.221 366.761C208.934 366.918 208.615 366.995 208.297 366.995L208.299 366.996ZM215.329 236.98C215.294 236.98 215.258 236.98 215.22 236.976C214.138 236.917 213.311 235.992 213.367 234.913L225.584 8.89046L194.394 53.2127C193.77 54.0989 192.548 54.3125 191.662 53.689C190.775 53.0656 190.562 51.8432 191.185 50.957L226.309 1.04852C226.814 0.333985 227.728 0.0362774 228.555 0.323489C229.381 0.6107 229.917 1.40926 229.872 2.28145L217.283 235.128C217.227 236.172 216.362 236.981 215.329 236.981L215.329 236.98Z" fill="white"/>
<path d="M365.215 268.919H255.257C254.175 268.919 253.296 268.04 253.296 266.958C253.296 265.875 254.175 264.996 255.257 264.996H362.122L285.751 102.709L67.2333 185.595C66.2176 185.98 65.0863 185.469 64.7045 184.456C64.3192 183.444 64.8306 182.309 65.8428 181.927L286.064 98.3975C287.02 98.0368 288.096 98.4676 288.533 99.3958L366.992 266.122C367.279 266.728 367.233 267.443 366.873 268.01C366.515 268.577 365.892 268.921 365.219 268.921L365.215 268.919ZM225.838 268.919H41.5725C40.9176 268.919 40.3046 268.59 39.9403 268.047L0.711173 209.203C0.378429 208.706 0.294368 208.086 0.476499 207.515C0.65863 206.948 1.08945 206.492 1.64987 206.279L38.3361 192.362C39.3518 191.977 40.4832 192.488 40.865 193.501C41.2502 194.513 40.7389 195.648 39.7266 196.03L5.34127 209.07L42.6229 264.996H225.839C226.921 264.996 227.8 265.875 227.8 266.957C227.797 268.039 226.918 268.919 225.835 268.919L225.838 268.919Z" fill="white"/>
<path d="M2.34323 210.08C1.88089 210.08 1.42209 209.915 1.05777 209.6C0.511361 209.131 0.269678 208.395 0.427303 207.691L39.6565 31.1554C39.7721 30.63 40.1013 30.1746 40.5636 29.898C41.026 29.6214 41.5829 29.5477 42.0977 29.6913L131.029 54.5918C132.073 54.8825 132.682 55.9648 132.388 57.0086C132.097 58.0524 131.012 58.6618 129.971 58.3675L43.0332 34.0248L5.04056 204.983L107.655 166.063C108.667 165.677 109.802 166.189 110.184 167.201C110.569 168.213 110.058 169.348 109.046 169.73L3.04171 209.947C2.81404 210.031 2.57938 210.073 2.34471 210.073L2.34323 210.08ZM135.866 159.436C135.074 159.436 134.328 158.953 134.03 158.172C133.645 157.159 134.157 156.025 135.169 155.643L280.483 100.522L158.312 66.3124C157.268 66.0217 156.658 64.9394 156.953 63.8956C157.243 62.8518 158.326 62.2423 159.37 62.5366L287.288 98.354C288.104 98.5816 288.682 99.3067 288.721 100.154C288.759 101.002 288.248 101.776 287.456 102.077L136.565 159.313C136.33 159.394 136.092 159.436 135.865 159.436L135.866 159.436Z" fill="white"/>
</svg>
