<svg width="275" height="275" viewBox="0 0 275 275" fill="none" xmlns="http://www.w3.org/2000/svg">
<g filter="url(#filter0_d_115_3004)">
<path d="M155.514 266.529C155.265 266.529 155.016 266.463 154.793 266.333L33.9319 195.236C33.5891 195.036 33.3479 194.701 33.2641 194.312C33.1803 193.924 33.2616 193.52 33.4901 193.195L130.834 54.8619C131.286 54.2195 132.172 54.0646 132.815 54.5166C133.457 54.9686 133.612 55.8547 133.16 56.4971L36.7064 193.569L154.22 262.697L158.036 192.074C158.079 191.29 158.739 190.695 159.532 190.731C160.316 190.774 160.915 191.444 160.875 192.226L156.932 265.182C156.904 265.678 156.622 266.124 156.183 266.358C155.974 266.472 155.743 266.528 155.512 266.528L155.514 266.529ZM160.61 172.279C160.584 172.279 160.559 172.279 160.531 172.276C159.747 172.233 159.147 171.563 159.188 170.781L168.044 6.93532L145.434 39.0648C144.982 39.7072 144.096 39.8621 143.454 39.4101C142.811 38.9582 142.656 38.072 143.108 37.4296L168.57 1.25065C168.936 0.732674 169.598 0.516863 170.198 0.725065C170.797 0.933266 171.185 1.51215 171.152 2.14441L162.027 170.936C161.986 171.693 161.359 172.28 160.61 172.28L160.61 172.279Z" fill="#333333"/>
<path d="M269.264 195.432H189.555C188.77 195.432 188.133 194.795 188.133 194.01C188.133 193.225 188.77 192.588 189.555 192.588H267.022L211.66 74.9447L53.2547 135.029C52.5184 135.309 51.6983 134.938 51.4215 134.204C51.1422 133.47 51.5129 132.648 52.2467 132.371L211.887 71.8196C212.58 71.5581 213.359 71.8704 213.677 72.5433L270.552 193.404C270.76 193.844 270.727 194.362 270.465 194.773C270.206 195.184 269.754 195.433 269.267 195.433L269.264 195.432ZM168.228 195.432H34.653C34.1782 195.432 33.7339 195.193 33.4698 194.8L5.03233 152.143C4.79112 151.783 4.73019 151.333 4.86221 150.92C4.99424 150.508 5.30654 150.178 5.7128 150.023L32.3069 139.935C33.0432 139.656 33.8633 140.027 34.1401 140.761C34.4194 141.494 34.0487 142.317 33.3149 142.594L8.38872 152.047L35.4144 192.588H168.229C169.013 192.588 169.651 193.225 169.651 194.01C169.648 194.794 169.011 195.432 168.226 195.432L168.228 195.432Z" fill="#333333"/>
<path d="M6.21523 152.779C5.88008 152.779 5.54749 152.66 5.2834 152.431C4.8873 152.091 4.7121 151.558 4.82637 151.047L33.2639 23.0752C33.3477 22.6943 33.5863 22.3642 33.9215 22.1637C34.2566 21.9632 34.6603 21.9098 35.0336 22.0139L99.5005 40.0644C100.257 40.2752 100.699 41.0597 100.486 41.8163C100.275 42.573 99.4878 43.0148 98.7337 42.8015L35.7117 25.1553L8.17055 149.084L82.5565 120.87C83.2903 120.591 84.113 120.962 84.3898 121.696C84.6691 122.429 84.2983 123.252 83.5646 123.529L6.72157 152.683C6.55653 152.743 6.38642 152.774 6.21631 152.774L6.21523 152.779ZM103.007 116.067C102.433 116.067 101.892 115.716 101.676 115.15C101.397 114.416 101.768 113.594 102.501 113.317L207.84 73.3596L119.278 48.5608C118.521 48.35 118.079 47.5655 118.293 46.8088C118.504 46.0522 119.288 45.6104 120.045 45.8237L212.774 71.7879C213.365 71.953 213.784 72.4786 213.812 73.093C213.84 73.7075 213.469 74.2686 212.896 74.4869L103.514 115.978C103.343 116.036 103.171 116.067 103.006 116.067L103.007 116.067Z" fill="#333333"/>
</g>
<defs>
<filter id="filter0_d_115_3004" x="0.791992" y="0.646484" width="273.896" height="273.882" filterUnits="userSpaceOnUse" color-interpolation-filters="sRGB">
<feFlood flood-opacity="0" result="BackgroundImageFix"/>
<feColorMatrix in="SourceAlpha" type="matrix" values="0 0 0 0 0 0 0 0 0 0 0 0 0 0 0 0 0 0 127 0" result="hardAlpha"/>
<feOffset dy="4"/>
<feGaussianBlur stdDeviation="2"/>
<feComposite in2="hardAlpha" operator="out"/>
<feColorMatrix type="matrix" values="0 0 0 0 0 0 0 0 0 0 0 0 0 0 0 0 0 0 0.25 0"/>
<feBlend mode="normal" in2="BackgroundImageFix" result="effect1_dropShadow_115_3004"/>
<feBlend mode="normal" in="SourceGraphic" in2="effect1_dropShadow_115_3004" result="shape"/>
</filter>
</defs>
</svg>
